<svg width="4096" height="587" viewBox="0 0 4096 587" fill="none" xmlns="http://www.w3.org/2000/svg">
<path d="M1580.5 0.699942C1502.4 7.09994 1435.6 39.3999 1383.9 95.5999C1343.9 139 1319.4 191.2 1309.7 253C1306.7 272.6 1306.7 314.4 1309.7 334C1318 386.9 1335.9 429.9 1366.4 470.4C1435.3 561.5 1550 604.1 1662.3 580.4C1686.8 575.2 1706.3 568.3 1731.6 555.9C1776.9 533.7 1817.2 498.1 1845.6 455C1869.9 418.2 1884.8 378.5 1891.7 332.5C1894.2 315.5 1894.2 271.5 1891.7 254.6C1883.3 198.8 1862.7 151 1828.9 109C1773.6 40.1999 1686.9 -0.800058 1599 0.199942C1591 0.299942 1582.7 0.499942 1580.5 0.699942ZM1625.2 101.5C1701.5 111.6 1764.6 169.3 1783.3 246C1795.6 296.2 1787.5 351.5 1761.5 394.5C1732.4 442.6 1686.5 474.5 1632.1 484.6C1618.8 487 1591.9 487.5 1577.4 485.6C1515.1 477.4 1462.1 439.5 1433.5 382.7C1397.5 311.1 1407.3 227.1 1459 165.7C1486.9 132.5 1530.5 107.9 1572 102.1C1576.1 101.5 1580.6 100.8 1582 100.6C1588.5 99.6999 1615.6 100.2 1625.2 101.5Z" fill="white"/>
<path d="M3.4 17.4L0 20.8V293.5V566.2L3.4 569.6L6.8 573H51.7C79.1 573 97.9 572.6 100.2 572C102.2 571.4 105.9 569.5 108.4 567.7C114.4 563.5 545.2 24.8 545.8 20.8C546.1 19.1 545.5 17.5 544.1 16.1L541.9 13.9L483.2 14.2L424.5 14.5L419 17.5C413.8 20.3 403.8 32.7 259.3 213.3L105 406.2V213.5V20.8L101.6 17.4L98.2 14H52.5H6.8L3.4 17.4Z" fill="white"/>
<path d="M735.7 15.6C728 17.4 720.1 21.3 713.9 26.2C710.4 28.9 662.8 87.7 565.6 209.4C486.8 307.9 390.8 428 352.2 476.3C301.5 539.6 282 564.7 282 566.5C282 567.9 282.9 569.9 284 571C286 573 286.9 573.1 344.8 572.8L403.5 572.5L409 569.5C414.1 566.7 419.9 559.7 489 473.3C530 422 564 379.6 564.7 378.9C565.5 378.1 584.2 400.8 641.4 472.2C709.9 557.8 717.4 566.9 722.2 569.6L727.5 572.5L774.3 572.8L821.1 573.1L824.6 569.6L828 566.2V293.5V20.8L824.6 17.4L821.2 14L781.3 14.1C750.9 14.1 740.1 14.5 735.7 15.6ZM722.8 354.9L722.5 416.9L673.6 355.7C646.7 322.1 624.7 294.1 624.7 293.5C624.7 292.9 646.7 264.9 673.6 231.3L722.5 170.1L722.8 231.5C722.9 265.2 722.9 320.8 722.8 354.9Z" fill="white"/>
<path d="M957.8 16.9L954.5 19.8V293.5V567.2L957.8 570.1L961.1 573L1091.3 572.8L1221.5 572.5L1226.9 569.5C1231.8 566.8 1235.9 562.1 1266.2 524.2C1285.6 499.9 1300 481.1 1300 479.9C1300 478.8 1298.9 476.8 1297.5 475.5L1295.1 473H1177H1059V246.9V20.8L1055.6 17.4L1052.2 14H1006.6H961L957.8 16.9Z" fill="white"/>
<path d="M1994.3 15C1993 15.5 1991.1 17.4 1990 19.2C1988 22.5 1988 24.1 1988 293.5C1988 562.6 1988 564.5 1990 567.8C1991.1 569.6 1993.2 571.5 1994.6 572C1996.1 572.6 2015 573 2041.1 573C2088.8 573 2089.3 572.9 2091.8 567.5C2092.7 565.5 2093 512.1 2093 339.5V114H2213.5H2334L2252.1 216.5C2203.3 277.4 2169.9 320.1 2169.5 321.8C2169.2 323.4 2169.3 325.7 2169.9 327.1C2171.3 330.8 2359.2 565.3 2362.8 567.8C2370 573 2370 573 2431.6 573C2488.6 573 2489 573 2491.1 570.9C2492.5 569.5 2493.1 567.9 2492.8 566.2C2492.6 564.5 2456.9 519.1 2396.6 443.7C2327.6 357.5 2301 323.6 2301.7 322.7C2302.3 322.1 2332.7 284 2369.3 238.2C2419 176 2436.2 153.8 2437.4 150.3C2438.8 146.2 2439 137.5 2439 83.2V20.8L2435.6 17.4L2432.2 14L2214.3 14.1C2087.4 14.1 1995.6 14.5 1994.3 15Z" fill="white"/>
<path d="M2586 15.3C2584.6 16 2582.7 18.1 2581.8 20C2580.1 23.3 2580 38.4 2580 293.5C2580 548.6 2580.1 563.7 2581.8 567C2582.7 568.9 2584.6 571 2586 571.7C2587.9 572.7 2599.4 573 2632.6 573C2679.7 573 2682.3 572.8 2689 568C2690.8 566.7 2725.5 524 2766.2 473.1C2807 422.2 2840.8 379.9 2841.5 379.1C2842.6 378 2855.7 394 2917.4 471.1C2969.2 535.9 2993.4 565.5 2996.6 567.7C2999.1 569.5 3002.8 571.4 3004.8 572C3007.1 572.6 3029.6 573 3065 573C3115.2 573 3121.8 572.8 3123.8 571.4C3129.4 567.5 3140.1 581.4 2909.2 292.6C2790.2 143.8 2691.3 20.8 2689.5 19.4C2682.7 14.2 2680.3 14 2632.6 14C2599.4 14 2587.9 14.3 2586 15.3ZM2736.4 233.3C2762.6 266.2 2784 293.3 2784 293.5C2784 294 2689 413.2 2686.4 416C2685.2 417.2 2685 398.4 2685 293.5C2685 172.2 2685 169.6 2686.9 171.5C2687.9 172.6 2710.2 200.4 2736.4 233.3Z" fill="white"/>
<path d="M3051.1 15.4C3045.8 18.3 3046.1 11.6 3046 155.1C3046 271.8 3046.2 289.2 3047.5 293.1C3048.6 296.2 3062.2 314 3094.6 354.5C3119.7 385.9 3140.7 411.8 3141.3 412.2C3143.3 413.5 3145.7 413.1 3148.1 411.1L3150.5 409.2L3151 295.4L3151.5 181.5L3304.6 373.1C3388.8 478.5 3459.3 565.9 3461.3 567.4C3468.3 572.8 3470.5 573 3518.2 573C3565 573 3566.4 572.9 3569 568.1C3569.7 566.7 3570 478.6 3570 293.5C3570 108.4 3569.7 20.3 3569 18.9C3566.4 14.1 3565 14 3518 14C3470.5 14 3469.7 14.1 3466.8 19.3C3465.8 21 3465.4 60 3465 213.2L3464.5 404.9L3312.5 214.8C3228.9 110.3 3159.2 23.5 3157.5 21.8C3155.9 20.2 3152.7 17.9 3150.5 16.7C3146.6 14.5 3145.5 14.5 3100 14.3C3062.6 14.1 3053 14.3 3051.1 15.4Z" fill="white"/>
<path d="M3648.3 15.9C3643.1 19.2 3642.8 21.3 3643.2 66C3643.5 110.4 3643.4 109.5 3649.6 112.5C3652.4 113.8 3663.1 114 3726.9 114H3801L3801.2 340.6L3801.5 567.2L3804.8 570.1L3808 573H3853.6H3899.2L3902.6 569.6L3906 566.2V340.1V114H3998.4C4090.3 114 4090.7 114 4093.4 111.9C4094.9 110.7 4096 108.9 4096 107.4C4096 105.8 4085.6 92 4062.2 62.8C4031.9 24.9 4027.8 20.2 4022.9 17.5L4017.5 14.5L3834.5 14.2C3654.4 14 3651.4 14 3648.3 15.9Z" fill="white"/>
</svg>
